<svg width="18" height="18" viewBox="0 0 18 18" fill="none" xmlns="http://www.w3.org/2000/svg">
<g clip-path="url(#clip0)" filter="url(#filter0_d)">
<path d="M9 2.5C12.5899 2.5 15.5 5.41015 15.5 9C15.5 12.5899 12.5899 15.5 9 15.5C5.41015 15.5 2.5 12.5899 2.5 9C2.5 5.41015 5.41015 2.5 9 2.5Z" stroke="#A3A3A3"/>
<mask id="path-2-inside-1" fill="white">
<path fill-rule="evenodd" clip-rule="evenodd" d="M4.05025 13.2426C3.85499 13.4379 3.85499 13.7545 4.05025 13.9497C4.24551 14.145 4.56209 14.145 4.75736 13.9497L6.87868 11.8284C7.07394 11.6332 7.07394 11.3166 6.87868 11.1213C6.68341 10.9261 6.36683 10.9261 6.17157 11.1213L4.05025 13.2426ZM11.1213 6.17157C10.9261 6.36683 10.9261 6.68341 11.1213 6.87868C11.3166 7.07394 11.6332 7.07394 11.8284 6.87868L13.9497 4.75736C14.145 4.56209 14.145 4.24551 13.9497 4.05025C13.7545 3.85499 13.4379 3.85499 13.2426 4.05025L11.1213 6.17157ZM4.05025 4.75736C3.85499 4.56209 3.85499 4.24551 4.05025 4.05025C4.24551 3.85499 4.56209 3.85499 4.75736 4.05025L6.87868 6.17157C7.07394 6.36683 7.07394 6.68341 6.87868 6.87868C6.68341 7.07394 6.36683 7.07394 6.17157 6.87868L4.05025 4.75736ZM11.8284 11.1213C11.6332 10.9261 11.3166 10.9261 11.1213 11.1213C10.9261 11.3166 10.9261 11.6332 11.1213 11.8284L13.2426 13.9497C13.4379 14.145 13.7545 14.145 13.9497 13.9497C14.145 13.7545 14.145 13.4379 13.9497 13.2426L11.8284 11.1213Z"/>
</mask>
<path d="M4.75736 13.9497L5.46446 14.6569L4.75736 13.9497ZM6.17157 11.1213L4.05025 13.2426L5.46446 14.6569L7.58578 12.5355L6.17157 11.1213ZM4.75736 13.9497L6.87868 11.8284L5.46446 10.4142L3.34314 12.5355L4.75736 13.9497ZM13.2426 4.05025L11.1213 6.17157L12.5355 7.58578L14.6569 5.46446L13.2426 4.05025ZM11.8284 6.87868L13.9497 4.75736L12.5355 3.34314L10.4142 5.46446L11.8284 6.87868ZM7.58578 5.46446L5.46446 3.34314L4.05025 4.75736L6.17157 6.87868L7.58578 5.46446ZM3.34314 5.46446L5.46446 7.58578L6.87868 6.17157L4.75736 4.05025L3.34314 5.46446ZM13.9497 13.2426L11.8284 11.1213L10.4142 12.5355L12.5355 14.6569L13.9497 13.2426ZM11.1213 11.8284L13.2426 13.9497L14.6569 12.5355L12.5355 10.4142L11.1213 11.8284ZM14.6569 14.6569C15.2426 14.0711 15.2426 13.1213 14.6569 12.5355L13.2426 13.9497C13.0474 13.7545 13.0474 13.4379 13.2426 13.2426L14.6569 14.6569ZM12.5355 14.6569C13.1213 15.2426 14.0711 15.2426 14.6569 14.6569L13.2426 13.2426C13.4379 13.0474 13.7545 13.0474 13.9497 13.2426L12.5355 14.6569ZM11.8284 11.8284C11.6332 12.0237 11.3166 12.0237 11.1213 11.8284L12.5355 10.4142C11.9497 9.82843 11 9.82843 10.4142 10.4142L11.8284 11.8284ZM10.4142 10.4142C9.82843 11 9.82843 11.9497 10.4142 12.5355L11.8284 11.1213C12.0237 11.3166 12.0237 11.6332 11.8284 11.8284L10.4142 10.4142ZM6.17157 6.17157C6.36683 5.97631 6.68341 5.97631 6.87868 6.17157L5.46446 7.58578C6.05025 8.17157 7 8.17157 7.58578 7.58578L6.17157 6.17157ZM6.17157 6.87868C5.97631 6.68341 5.97631 6.36683 6.17157 6.17157L7.58578 7.58578C8.17157 7 8.17157 6.05025 7.58578 5.46446L6.17157 6.87868ZM3.34314 3.34314C2.75736 3.92893 2.75736 4.87868 3.34314 5.46446L4.75736 4.05025C4.95262 4.24551 4.95262 4.56209 4.75736 4.75736L3.34314 3.34314ZM4.75736 4.75736C4.56209 4.95262 4.24551 4.95262 4.05025 4.75736L5.46446 3.34314C4.87868 2.75736 3.92893 2.75736 3.34314 3.34314L4.75736 4.75736ZM14.6569 3.34314C14.0711 2.75736 13.1213 2.75736 12.5355 3.34314L13.9497 4.75736C13.7545 4.95262 13.4379 4.95262 13.2426 4.75736L14.6569 3.34314ZM14.6569 5.46446C15.2426 4.87868 15.2426 3.92893 14.6569 3.34314L13.2426 4.75736C13.0474 4.56209 13.0474 4.24551 13.2426 4.05025L14.6569 5.46446ZM11.8284 6.17157C12.0237 6.36683 12.0237 6.68341 11.8284 6.87868L10.4142 5.46446C9.82842 6.05025 9.82842 7 10.4142 7.58578L11.8284 6.17157ZM10.4142 7.58578C11 8.17157 11.9497 8.17157 12.5355 7.58578L11.1213 6.17157C11.3166 5.97631 11.6332 5.97631 11.8284 6.17157L10.4142 7.58578ZM7.58578 10.4142C7 9.82842 6.05025 9.82842 5.46446 10.4142L6.87868 11.8284C6.68341 12.0237 6.36683 12.0237 6.17157 11.8284L7.58578 10.4142ZM7.58578 12.5355C8.17157 11.9497 8.17157 11 7.58578 10.4142L6.17157 11.8284C5.97631 11.6332 5.97631 11.3166 6.17157 11.1213L7.58578 12.5355ZM4.75736 13.2426C4.95262 13.4379 4.95262 13.7545 4.75736 13.9497L3.34314 12.5355C2.75736 13.1213 2.75736 14.0711 3.34314 14.6569L4.75736 13.2426ZM3.34314 14.6569C3.92893 15.2426 4.87868 15.2426 5.46446 14.6569L4.05025 13.2426C4.24551 13.0474 4.56209 13.0474 4.75736 13.2426L3.34314 14.6569Z" fill="#A3A3A3" mask="url(#path-2-inside-1)"/>
</g>
<defs>
<filter id="filter0_d" x="-1" y="0" width="20" height="20" filterUnits="userSpaceOnUse" color-interpolation-filters="sRGB">
<feFlood flood-opacity="0" result="BackgroundImageFix"/>
<feColorMatrix in="SourceAlpha" type="matrix" values="0 0 0 0 0 0 0 0 0 0 0 0 0 0 0 0 0 0 127 0"/>
<feOffset dy="1"/>
<feGaussianBlur stdDeviation="0.5"/>
<feColorMatrix type="matrix" values="0 0 0 0 0 0 0 0 0 0 0 0 0 0 0 0 0 0 0.4 0"/>
<feBlend mode="normal" in2="BackgroundImageFix" result="effect1_dropShadow"/>
<feBlend mode="normal" in="SourceGraphic" in2="effect1_dropShadow" result="shape"/>
</filter>
<clipPath id="clip0">
<rect width="18" height="18" fill="white"/>
</clipPath>
</defs>
</svg>
