<svg width="18" height="18" viewBox="0 0 18 18" fill="none" xmlns="http://www.w3.org/2000/svg">
<g filter="url(#filter0_d)">
<path opacity="0.5" fill-rule="evenodd" clip-rule="evenodd" d="M5.5 11H5L5 7L5.5 7L7 9L5.5 11ZM11 7H7L7 9V11H11C12.1046 11 13 10.1046 13 9C13 7.89543 12.1046 7 11 7Z" fill="#C4C4C4"/>
<path d="M9 2.5C12.5899 2.5 15.5 5.41015 15.5 9C15.5 12.5899 12.5899 15.5 9 15.5C5.41015 15.5 2.5 12.5899 2.5 9C2.5 5.41015 5.41015 2.5 9 2.5Z" stroke="#A3A3A3"/>
<mask id="path-3-inside-1" fill="white">
<path fill-rule="evenodd" clip-rule="evenodd" d="M4.05025 13.2426C3.85499 13.4379 3.85499 13.7545 4.05025 13.9497C4.24551 14.145 4.56209 14.145 4.75736 13.9497L11.4749 7.23223L13.9497 4.75736C14.145 4.56209 14.145 4.24551 13.9497 4.05025C13.7545 3.85499 13.4379 3.85499 13.2426 4.05025L10.7678 6.52512L4.05025 13.2426Z"/>
</mask>
<path d="M11.4749 7.23223L12.182 7.93934L11.4749 7.23223ZM10.7678 6.52512L11.4749 7.23223L10.7678 6.52512ZM13.9497 4.75736L14.6569 5.46446L13.9497 4.75736ZM4.05025 13.2426L4.75736 13.9497L4.05025 13.2426ZM4.75736 13.9497L4.05025 13.2426L4.75736 13.9497ZM10.7678 6.52512L4.05025 13.2426L5.46446 14.6569L12.182 7.93934L10.7678 6.52512ZM13.2426 4.05025L10.7678 6.52512L12.182 7.93934L14.6569 5.46446L13.2426 4.05025ZM11.4749 7.23223L13.9497 4.75736L12.5355 3.34314L10.0607 5.81802L11.4749 7.23223ZM4.75736 13.9497L11.4749 7.23223L10.0607 5.81802L3.34314 12.5355L4.75736 13.9497ZM14.6569 3.34314C14.0711 2.75736 13.1213 2.75736 12.5355 3.34314L13.9497 4.75736C13.7545 4.95262 13.4379 4.95262 13.2426 4.75736L14.6569 3.34314ZM14.6569 5.46446C15.2426 4.87868 15.2426 3.92893 14.6569 3.34314L13.2426 4.75736C13.0474 4.56209 13.0474 4.24551 13.2426 4.05025L14.6569 5.46446ZM4.75736 13.2426C4.95262 13.4379 4.95262 13.7545 4.75736 13.9497L3.34314 12.5355C2.75736 13.1213 2.75736 14.0711 3.34314 14.6569L4.75736 13.2426ZM3.34314 14.6569C3.92893 15.2426 4.87868 15.2426 5.46446 14.6569L4.05025 13.2426C4.24551 13.0474 4.56209 13.0474 4.75736 13.2426L3.34314 14.6569Z" fill="#A3A3A3" mask="url(#path-3-inside-1)"/>
</g>
<defs>
<filter id="filter0_d" x="-1" y="0" width="20" height="20" filterUnits="userSpaceOnUse" color-interpolation-filters="sRGB">
<feFlood flood-opacity="0" result="BackgroundImageFix"/>
<feColorMatrix in="SourceAlpha" type="matrix" values="0 0 0 0 0 0 0 0 0 0 0 0 0 0 0 0 0 0 127 0"/>
<feOffset dy="1"/>
<feGaussianBlur stdDeviation="0.5"/>
<feColorMatrix type="matrix" values="0 0 0 0 0 0 0 0 0 0 0 0 0 0 0 0 0 0 0.4 0"/>
<feBlend mode="normal" in2="BackgroundImageFix" result="effect1_dropShadow"/>
<feBlend mode="normal" in="SourceGraphic" in2="effect1_dropShadow" result="shape"/>
</filter>
</defs>
</svg>
