<svg width="18" height="18" viewBox="0 0 18 18" fill="none" xmlns="http://www.w3.org/2000/svg">
<g filter="url(#filter0_d)">
<path d="M3 12C3 11.4477 3.44772 11 4 11H7C7.55228 11 8 11.4477 8 12V13.5C8 14.8807 6.88071 16 5.5 16C4.11929 16 3 14.8807 3 13.5V12Z" fill="#A3A3A3"/>
<path d="M3 10H8V9H3V10Z" fill="#A3A3A3"/>
<path d="M4 11H7V10H4V11Z" fill="#A3A3A3"/>
<rect x="5" y="3" width="1" height="5" fill="#A3A3A3"/>
<path fill-rule="evenodd" clip-rule="evenodd" d="M12.5 8C11.6716 8 11 8.67157 11 9.5V14.5C11 15.3284 11.6716 16 12.5 16C13.3284 16 14 15.3284 14 14.5V9.5C14 8.67157 13.3284 8 12.5 8ZM13 14H12V15H13V14Z" fill="#A3A3A3"/>
<path fill-rule="evenodd" clip-rule="evenodd" d="M11 1.88493C9.81753 2.52691 9 3.90435 9 5.5C9 7.70914 10.567 9.5 12.5 9.5C14.433 9.5 16 7.70914 16 5.5C16 3.90435 15.1825 2.52691 14 1.88493V5.5C14 6.32843 13.3284 7 12.5 7C11.6716 7 11 6.32843 11 5.5V1.88493Z" fill="#A3A3A3"/>
</g>
<defs>
<filter id="filter0_d" x="-1" y="0" width="20" height="20" filterUnits="userSpaceOnUse" color-interpolation-filters="sRGB">
<feFlood flood-opacity="0" result="BackgroundImageFix"/>
<feColorMatrix in="SourceAlpha" type="matrix" values="0 0 0 0 0 0 0 0 0 0 0 0 0 0 0 0 0 0 127 0"/>
<feOffset dy="1"/>
<feGaussianBlur stdDeviation="0.5"/>
<feColorMatrix type="matrix" values="0 0 0 0 0 0 0 0 0 0 0 0 0 0 0 0 0 0 0.4 0"/>
<feBlend mode="normal" in2="BackgroundImageFix" result="effect1_dropShadow"/>
<feBlend mode="normal" in="SourceGraphic" in2="effect1_dropShadow" result="shape"/>
</filter>
</defs>
</svg>
